<svg version="1.1" id="Beauty_Success_Logo" xmlns="http://www.w3.org/2000/svg" xmlns:xlink="http://www.w3.org/1999/xlink" viewBox="0 0 552.4 72" style="enable-background:new 0 0 552.4 72">
<style>.st0{fill:#E42313;}.st1{fill:#F49600;}.st2{fill:#A2559D;}.st3{fill:#EE7402;}.st4{fill:#E6007E;}.st5{fill:#1D1D1B;}.st6{fill:#0055A4;}.st7{fill:#EF4135;}</style>
<g>
	<path class="st0" d="M55.1,42.7c-0.4-0.1-0.8,0.1-1,0.4c-0.3,0.3-0.5,0.7-0.8,1S53,44.7,52.8,45l-0.3,0.6c-0.1,0.2-0.2,0.5-0.2,0.7
		c-0.1,0.3-0.2,0.6-0.3,1c-0.1,0.4-0.2,0.9-0.2,1.3c0,0.4,0.2,0.8,0.5,1c0.7,0.5,2.7-0.7,3.7-1.2c0.4-0.2,0.9-0.5,1.3-0.7
		c-0.1-0.5-0.3-1-0.4-1.4C56.5,45.2,55.9,42.9,55.1,42.7L55.1,42.7z M25.4,46.3c-0.1-0.2-0.2-0.5-0.2-0.7L24.9,45
		c-0.1-0.3-0.3-0.6-0.5-0.9c-0.2-0.4-0.5-0.7-0.8-1c-0.3-0.3-0.6-0.4-1-0.4c-0.8,0.1-1.4,2.4-1.7,3.5c-0.2,0.5-0.3,0.9-0.4,1.4
		c0.4,0.2,0.9,0.5,1.3,0.7c1,0.5,3,1.7,3.7,1.2c0.3-0.3,0.5-0.6,0.5-1c0-0.4-0.1-0.9-0.2-1.3C25.6,46.9,25.5,46.6,25.4,46.3
		L25.4,46.3z M22.5,37.3c0.4,0.1,0.8-0.1,1-0.4c0.3-0.3,0.5-0.7,0.8-1s0.3-0.6,0.5-0.9l0.3-0.6c0.1-0.2,0.2-0.5,0.2-0.7
		c0.1-0.3,0.2-0.6,0.3-1c0.1-0.4,0.2-0.9,0.2-1.3c0-0.4-0.2-0.8-0.5-1c-0.7-0.5-2.7,0.7-3.7,1.2c-0.4,0.2-0.9,0.5-1.3,0.7
		c0.1,0.5,0.3,1,0.4,1.4C21.1,34.8,21.7,37.1,22.5,37.3L22.5,37.3z M30.3,27.1c0.4,0,0.9-0.1,1.3-0.2c0.3-0.1,0.7-0.2,1-0.3
		c0.2-0.1,0.5-0.2,0.7-0.2l0.6-0.3c0.3-0.2,0.6-0.3,0.9-0.5c0.4-0.2,0.7-0.5,1-0.8c0.3-0.3,0.4-0.6,0.4-1c-0.1-0.8-2.4-1.4-3.5-1.8
		c-0.5-0.1-1-0.3-1.4-0.4c-0.2,0.4-0.5,0.9-0.7,1.3c-0.5,1-1.7,3-1.2,3.7C29.5,26.9,29.8,27,30.3,27.1z M30.6,45.8
		c1,0.6,1.5,0.7,2.2-0.3c0.2-0.3,0.3-0.6,0.4-1c0.2-1.3-2.2-0.5-2.7-0.8c1.4-0.5,2-0.9,1.9-1c-0.1-0.1-0.7,0-2.1,0.6
		c0.1-0.5,2.4-1.7,1.3-2.5c-0.3-0.2-0.6-0.4-1-0.4c-1.2-0.2-1.5,0.2-1.8,1.3c-0.1-0.3-0.2-0.6-0.4-0.9c-0.4-0.5-3.9-0.8-4.2-0.3
		c-0.5,0.8,1.6,2.5,2.2,2.8c0.7,0.3,1.4,0.5,2.2,0.5c0.3,0.1-0.3,0.2-0.2,0.4s0.5-0.1,0.4,0.2c-0.5,0.6-0.9,1.3-1.2,2
		c-0.2,0.7-0.5,3.3,0.4,3.6c0.5,0.1,2.7-2.5,2.7-3.2C30.9,46.5,30.7,46.1,30.6,45.8L30.6,45.8z M43,25.6c0.3,0.2,0.6,0.3,0.9,0.5
		l0.6,0.3c0.2,0.1,0.5,0.2,0.7,0.2c0.3,0.1,0.6,0.2,1,0.3c0.4,0.1,0.9,0.2,1.3,0.2c0.4,0,0.8-0.2,1-0.5c0.5-0.7-0.7-2.7-1.2-3.7
		c-0.2-0.4-0.5-0.9-0.7-1.3c-0.5,0.1-1,0.3-1.4,0.4c-1,0.3-3.3,0.9-3.5,1.8c-0.1,0.4,0.1,0.8,0.4,1C42.2,25.1,42.6,25.3,43,25.6z
		 M52.3,33.7c0.1,0.2,0.2,0.4,0.2,0.6l0.3,0.6c0.1,0.3,0.3,0.6,0.5,0.9c0.2,0.3,0.4,0.7,0.7,1c0.3,0.3,0.6,0.4,1,0.4
		c0.9-0.1,1.4-2.4,1.8-3.5c0.1-0.5,0.3-1,0.4-1.4c-0.4-0.2-0.9-0.5-1.3-0.7c-1-0.5-3-1.7-3.7-1.2c-0.3,0.3-0.5,0.6-0.5,1
		c0,0.4,0.1,0.9,0.2,1.3C52.1,33,52.2,33.3,52.3,33.7z M45.6,48c-0.3,0.1-0.7,0.2-1,0.3c0.6-1,0.7-1.5-0.3-2.2
		c-0.3-0.2-0.6-0.3-1-0.4c-1.3-0.2-0.5,2.2-0.8,2.7c-0.5-1.4-0.9-2-1-1.9s0,0.7,0.6,2.1c-0.5-0.1-1.7-2.4-2.5-1.3
		c-0.2,0.3-0.4,0.6-0.4,1c-0.2,1.2,0.2,1.5,1.3,1.8c-0.3,0.1-0.6,0.2-0.9,0.4c-0.5,0.4-0.8,3.9-0.3,4.2c0.8,0.5,2.5-1.6,2.8-2.2
		c0.3-0.7,0.4-1.4,0.5-2.2c0.1-0.3,0.2,0.3,0.4,0.2s-0.1-0.5,0.2-0.4c0.6,0.5,1.3,0.9,2,1.2c0.7,0.2,3.3,0.5,3.6-0.4
		C48.9,50.1,46.2,47.9,45.6,48L45.6,48z M53.4,39.5c0.5-0.8-1.6-2.5-2.2-2.8c-0.7-0.3-1.5-0.5-2.2-0.5c-0.3-0.1,0.3-0.2,0.2-0.4
		c-0.1-0.2-0.5,0.1-0.4-0.2c0.5-0.6,0.9-1.3,1.2-2c0.2-0.7,0.5-3.3-0.4-3.6c-0.5-0.1-2.7,2.5-2.7,3.2c0.1,0.3,0.2,0.7,0.3,1
		c-1-0.6-1.5-0.7-2.2,0.3c-0.2,0.3-0.3,0.6-0.4,1c-0.2,1.3,2.2,0.5,2.7,0.8c-1.4,0.5-2,0.9-1.9,1s0.7,0,2.1-0.6
		c-0.1,0.5-2.4,1.7-1.3,2.5c0.3,0.2,0.6,0.4,1,0.4c1.2,0.2,1.5-0.2,1.8-1.3c0.1,0.3,0.2,0.6,0.4,0.9C49.6,39.6,53.1,40,53.4,39.5
		L53.4,39.5z M38.3,25.5c-0.8-0.5-2.5,1.6-2.8,2.2c-0.3,0.7-0.4,1.5-0.5,2.2c-0.1,0.3-0.2-0.3-0.4-0.2s0.1,0.5-0.2,0.4
		c-0.6-0.5-1.3-0.9-2-1.2c-0.7-0.2-3.3-0.5-3.6,0.4C28.7,29.8,31.3,32,32,32c0.3-0.1,0.7-0.2,1-0.3c-0.6,1-0.7,1.5,0.3,2.2
		c0.3,0.2,0.6,0.3,1,0.4c1.3,0.2,0.5-2.2,0.8-2.7c0.5,1.4,0.9,2,1,1.9c0.1-0.1,0-0.7-0.6-2.1c0.5,0.1,1.7,2.4,2.5,1.3
		c0.2-0.3,0.4-0.6,0.4-1c0.2-1.2-0.2-1.5-1.3-1.8c0.3-0.1,0.6-0.2,0.9-0.4C38.4,29.2,38.8,25.8,38.3,25.5z M47.4,53
		c-0.4,0-0.9,0.1-1.3,0.2l-1,0.3c-0.2,0.1-0.5,0.2-0.7,0.2L43.8,54c-0.3,0.2-0.6,0.3-0.9,0.5c-0.4,0.2-0.7,0.5-1,0.8
		c-0.3,0.3-0.4,0.6-0.4,1c0.1,0.9,2.4,1.4,3.5,1.8c0.5,0.1,1,0.3,1.4,0.4c0.2-0.4,0.5-0.9,0.7-1.3c0.5-1,1.7-3,1.2-3.7
		C48.1,53.2,47.8,53,47.4,53z M34.7,54.5c-0.3-0.2-0.6-0.3-0.9-0.5l-0.6-0.3c-0.2-0.1-0.5-0.2-0.7-0.2c-0.3-0.1-0.6-0.2-1-0.3
		C31,53.1,30.6,53,30.2,53c-0.4,0-0.8,0.2-1,0.5c-0.5,0.7,0.7,2.7,1.2,3.7c0.2,0.4,0.5,0.9,0.7,1.3c0.5-0.1,1-0.3,1.4-0.4
		c1-0.3,3.3-0.9,3.5-1.7c0.1-0.4-0.1-0.8-0.4-1C35.4,55,35.1,54.7,34.7,54.5L34.7,54.5z"/>
	<path class="st1" d="M37.1,50c1.1-0.3,1.6-0.6,1.3-1.8c-0.1-0.3-0.2-0.7-0.4-1c-0.8-1.1-1.9,1.2-2.5,1.3c0.6-1.3,0.8-2.1,0.6-2.1
		s-0.5,0.5-1,1.9c-0.3-0.4,0.5-2.9-0.8-2.7c-0.4,0-0.7,0.2-1,0.4c-1,0.7-0.9,1.2-0.3,2.2c-0.3-0.2-0.6-0.3-1-0.3
		c-0.6,0-3.3,2.2-3.2,2.7c0.2,0.9,2.9,0.7,3.6,0.4c0.7-0.3,1.4-0.7,2-1.2c0.3-0.1,0,0.3,0.2,0.4s0.3-0.5,0.4-0.2
		c0,0.8,0.2,1.5,0.5,2.2c0.3,0.6,2,2.7,2.8,2.2c0.5-0.3,0.1-3.7-0.3-4.2C37.7,50.2,37.4,50.1,37.1,50z M44.7,31.7
		c0.3,0.2,0.6,0.3,1,0.3c0.6,0,3.3-2.2,3.2-2.7c-0.2-0.9-2.9-0.7-3.6-0.4c-0.7,0.3-1.4,0.7-2,1.2c-0.3,0.1,0-0.3-0.2-0.4
		s-0.3,0.5-0.4,0.2c0-0.8-0.2-1.5-0.5-2.2c-0.3-0.6-2-2.7-2.8-2.2c-0.5,0.3-0.1,3.7,0.3,4.2c0.2,0.2,0.6,0.4,0.9,0.4
		c-1.1,0.3-1.6,0.6-1.3,1.8c0.1,0.3,0.2,0.7,0.4,1c0.8,1.1,1.9-1.2,2.5-1.3c-0.6,1.3-0.8,2.1-0.6,2.1s0.5-0.5,1-1.9
		c0.3,0.4-0.5,2.9,0.8,2.7c0.4,0,0.7-0.2,1-0.4C45.3,33.2,45.2,32.7,44.7,31.7z M53.4,40.5c-0.3-0.5-3.7-0.1-4.2,0.3
		c-0.2,0.2-0.4,0.6-0.4,0.9c-0.3-1.1-0.6-1.6-1.8-1.3c-0.3,0.1-0.7,0.2-1,0.4c-1.1,0.8,1.2,1.9,1.3,2.5c-1.3-0.6-2.1-0.8-2.1-0.6
		s0.5,0.5,1.9,1c-0.4,0.3-2.9-0.5-2.7,0.8c0,0.4,0.2,0.7,0.4,1c0.7,1,1.2,0.9,2.2,0.3c-0.2,0.3-0.3,0.6-0.3,1c0,0.6,2.2,3.3,2.7,3.2
		c0.9-0.2,0.7-2.9,0.4-3.6c-0.3-0.7-0.7-1.4-1.2-2c-0.1-0.3,0.3,0,0.4-0.2s-0.5-0.3-0.2-0.4c0.8,0,1.5-0.2,2.2-0.5
		C51.8,43,53.9,41.3,53.4,40.5L53.4,40.5z M30.7,39.6c0.4,0,0.7-0.2,1-0.4c1.1-0.8-1.2-2-1.3-2.5c1.3,0.6,2.1,0.8,2.1,0.6
		s-0.5-0.5-1.9-1c0.4-0.3,2.9,0.5,2.7-0.8c0-0.4-0.2-0.7-0.4-1c-0.7-1-1.2-0.9-2.2-0.3c0.2-0.3,0.3-0.6,0.3-1c0-0.6-2.2-3.3-2.7-3.2
		c-0.9,0.2-0.7,2.9-0.4,3.6c0.3,0.7,0.7,1.4,1.2,2c0.1,0.3-0.3,0-0.4,0.2s0.5,0.3,0.2,0.4c-0.8,0-1.5,0.2-2.2,0.5
		c-0.6,0.3-2.7,2-2.2,2.8c0.3,0.5,3.7,0.1,4.2-0.3c0.2-0.2,0.4-0.6,0.4-0.9C29.1,39.5,29.5,39.9,30.7,39.6L30.7,39.6z"/>
	<path class="st2" d="M38.9,39.8c0.2,0,0.1,0.6,0.3,0.4c0.4-0.8,0.9-1.5,1.5-2.1c0.6-0.5,3.2-1.9,3.8-1.1c0.4,0.5-1.4,3.9-2.1,4.1
		c-0.4,0.1-0.7,0.1-1.1,0.1c1,0.8,1.3,1.3,0.6,2.4c-0.2,0.3-0.5,0.6-0.8,0.8c-1.3,0.8-1.5-2-2-2.4c0.1,1.6-0.1,2.4-0.2,2.4
		s-0.3-0.8-0.2-2.4c-0.5,0.3-0.7,3.1-2,2.4c-0.3-0.2-0.6-0.5-0.8-0.8c-0.7-1.1-0.4-1.6,0.6-2.4c-0.4,0-0.8,0.1-1.1-0.1
		c-0.7-0.2-2.5-3.6-2.1-4.1c0.6-0.8,3.2,0.5,3.8,1.1c0.6,0.6,1.1,1.3,1.5,2.1C38.7,40.4,38.6,39.8,38.9,39.8"/>
	<path class="st3" d="M48.4,26.6c-0.3,0.3-0.6,0.5-1,0.5c1.5,0.1,2.9-0.1,4.3-0.7c0.3,0,0.2,0.1,0.1,0.3c-0.1,0.1-0.1,0.3,0,0.4
		c0.1,0.1,0.3,0.1,0.4,0c0.2-0.1,0.3-0.2,0.3,0.1c-0.6,1.4-0.8,2.8-0.7,4.3c0-0.4,0.2-0.8,0.5-1C53,30,55,31.2,56,31.7
		c0.4,0.2,0.9,0.5,1.3,0.7c0.3-0.8,0.4-1.7,0.2-2.5c-0.3-0.6-0.8-1-1.3-1.4c0.2,0,0.4,0,0.6,0.1c0.6,0.1,1.2,0,1.8-0.2
		c0.2-0.1,0.4-0.2,0.5-0.4c0.5-0.6,0.3-1,0.4-1.2c0.1-0.2,0.2-0.5,0.3-0.7c0-0.2-0.1-0.4-0.1-0.7s0.2-0.4,0.2-0.6s-0.2-0.3-0.2-0.4
		s0.3-0.5-0.2-0.8c-0.1-0.1-0.2-0.1-0.4-0.1c-0.4,0-0.8,0-1.2,0.1c-0.7,0.2-2.1,0.9-3.2,1.2c0.4-0.3,0.7-0.6,1-1
		c0.5-0.5,1.1-1.1,1.5-1.6c0.1-0.2,0.2-0.4,0-0.5c-0.2-0.1-0.4-0.1-0.5,0c-0.6,0.4-1.1,0.9-1.6,1.5c-0.3,0.4-0.6,0.7-1,1
		c0.3-1.2,1-2.5,1.2-3.2c0.1-0.4,0.1-0.8,0.1-1.2c0-0.2-0.1-0.3-0.1-0.4c-0.3-0.5-0.7-0.2-0.8-0.2S54.3,19,54.1,19s-0.3,0.2-0.6,0.2
		s-0.4-0.2-0.7-0.1c-0.2,0.1-0.5,0.2-0.7,0.3c-0.2,0.1-0.6-0.1-1.2,0.4c-0.2,0.1-0.3,0.3-0.4,0.5c-0.2,0.6-0.3,1.2-0.2,1.8
		c0,0.1,0,0.5,0.1,0.6c-0.4-0.5-0.9-1-1.4-1.3c-0.8-0.1-1.7,0-2.5,0.2c0.2,0.4,0.5,0.9,0.7,1.3C47.7,23.9,48.9,26,48.4,26.6
		L48.4,26.6z M59.7,55.6c0-0.1,0.2-0.2,0.2-0.4s-0.2-0.3-0.2-0.6s0.2-0.4,0.1-0.7c-0.1-0.2-0.2-0.5-0.3-0.7
		c-0.1-0.2,0.1-0.6-0.4-1.2c-0.1-0.2-0.3-0.3-0.5-0.4c-0.6-0.2-1.2-0.3-1.8-0.2c-0.1,0-0.5,0-0.6,0.1c0.5-0.4,1-0.8,1.3-1.4
		c0.1-0.8,0-1.7-0.2-2.5c-0.4,0.2-0.9,0.5-1.3,0.7c-1,0.5-3,1.7-3.7,1.2c-0.3-0.3-0.5-0.6-0.5-1c-0.1,1.4,0.1,2.9,0.7,4.2
		c0,0.3-0.1,0.2-0.3,0.1c-0.1-0.1-0.3-0.1-0.4,0s-0.1,0.3,0,0.4l0,0c0.1,0.2,0.2,0.3-0.1,0.3c-1.4-0.6-2.8-0.8-4.3-0.7
		c0.4,0,0.8,0.2,1,0.5c0.5,0.7-0.7,2.7-1.2,3.7c-0.2,0.4-0.5,0.9-0.7,1.3c0.8,0.3,1.7,0.4,2.5,0.2c0.6-0.3,1-0.8,1.4-1.3
		c0,0.1-0.1,0.5-0.1,0.6c-0.1,0.6,0,1.2,0.2,1.8c0.1,0.2,0.2,0.4,0.4,0.5c0.6,0.5,1,0.3,1.2,0.4c0.2,0.1,0.5,0.2,0.7,0.3
		c0.2,0,0.4-0.1,0.7-0.1s0.4,0.2,0.6,0.2s0.3-0.2,0.4-0.2s0.5,0.3,0.8-0.2c0.1-0.1,0.1-0.2,0.1-0.4c0-0.4,0-0.8-0.1-1.2
		c-0.2-0.7-0.9-2.1-1.2-3.2c0.3,0.4,0.6,0.7,1,1c0.5,0.5,1,1,1.6,1.5c0.2,0.1,0.4,0.2,0.5,0c0.1-0.2,0.1-0.3,0-0.5
		c-0.5-0.6-1-1.1-1.5-1.6c-0.4-0.3-0.7-0.6-1-1c1.2,0.3,2.5,1,3.2,1.2c0.4,0.1,0.8,0.1,1.2,0.1c0.2,0,0.3-0.1,0.4-0.2
		C60,56,59.7,55.7,59.7,55.6L59.7,55.6z M29.3,53.4c0.3-0.3,0.6-0.5,1-0.5c-1.5-0.1-2.9,0.1-4.3,0.7c-0.3,0-0.2-0.1-0.1-0.3
		c0.1-0.1,0.1-0.3,0-0.4c-0.1-0.1-0.3-0.1-0.4,0l0,0c-0.1,0.1-0.3,0.2-0.3-0.1c0.6-1.3,0.8-2.8,0.7-4.2c0,0.4-0.2,0.8-0.5,1
		c-0.7,0.5-2.7-0.7-3.7-1.2c-0.4-0.2-0.9-0.5-1.3-0.7c-0.3,0.8-0.4,1.7-0.2,2.5c0.3,0.6,0.8,1,1.3,1.4c-0.1,0-0.5-0.1-0.6-0.1
		c-0.6-0.1-1.2,0-1.8,0.2c-0.2,0.1-0.4,0.2-0.5,0.4c-0.5,0.6-0.3,1-0.4,1.2c-0.1,0.2-0.2,0.5-0.3,0.7c0,0.2,0.1,0.4,0.1,0.7
		s-0.2,0.4-0.2,0.6s0.2,0.3,0.2,0.4s-0.3,0.5,0.2,0.8c0.1,0.1,0.2,0.1,0.4,0.1c0.4,0,0.8,0,1.2-0.1c0.7-0.2,2.1-0.9,3.2-1.2
		c-0.4,0.3-0.7,0.6-1,1c-0.5,0.5-1.1,1.1-1.5,1.6c-0.1,0.2-0.2,0.4,0,0.5c0.2,0.1,0.3,0.1,0.5,0c0.6-0.4,1.1-0.9,1.6-1.5
		c0.3-0.4,0.6-0.7,1-1c-0.3,1.2-1,2.5-1.2,3.2c-0.1,0.4-0.1,0.8-0.1,1.2c0,0.2,0.1,0.3,0.1,0.4c0.3,0.5,0.7,0.2,0.8,0.2
		s0.2,0.2,0.4,0.2s0.3-0.2,0.6-0.2s0.4,0.2,0.7,0.1c0.2-0.1,0.5-0.2,0.7-0.3c0.2-0.1,0.6,0.1,1.2-0.4c0.2-0.1,0.3-0.3,0.4-0.5
		c0.2-0.6,0.3-1.2,0.2-1.8c0-0.1-0.1-0.5-0.1-0.6c0.4,0.5,0.8,1,1.4,1.3c0.8,0.1,1.7,0,2.5-0.2c-0.2-0.4-0.5-0.9-0.7-1.3
		C30,56.1,28.8,54.1,29.3,53.4L29.3,53.4z M28.7,21.4c-0.6,0.3-1,0.8-1.4,1.3c0-0.1,0.1-0.5,0.1-0.6c0.1-0.6,0-1.2-0.2-1.8
		c-0.1-0.2-0.2-0.4-0.4-0.5c-0.6-0.5-1-0.3-1.2-0.4c-0.2-0.1-0.5-0.2-0.7-0.3c-0.2,0-0.4,0.1-0.7,0.1S23.9,19,23.7,19
		s-0.3,0.2-0.4,0.2s-0.5-0.3-0.8,0.2c-0.1,0.1-0.1,0.2-0.1,0.4c0,0.4,0,0.8,0.1,1.2c0.2,0.7,0.9,2.1,1.2,3.2c-0.3-0.4-0.6-0.7-1-1
		c-0.5-0.5-1-1-1.6-1.5c-0.2-0.1-0.4-0.2-0.5,0c-0.1,0.2-0.1,0.3,0,0.5c0.4,0.6,0.9,1.1,1.5,1.6c0.4,0.3,0.7,0.6,1,1
		c-1.2-0.3-2.5-1-3.2-1.2c-0.4-0.1-0.8-0.1-1.2-0.1c-0.2,0-0.3,0.1-0.4,0.1c-0.5,0.3-0.2,0.7-0.2,0.8s-0.2,0.2-0.2,0.4
		s0.2,0.3,0.2,0.6s-0.2,0.4-0.1,0.7c0.1,0.2,0.2,0.5,0.3,0.7c0.1,0.2-0.1,0.6,0.4,1.2c0.1,0.2,0.3,0.3,0.5,0.4
		c0.6,0.2,1.3,0.3,1.9,0.2c0.1,0,0.5,0,0.6-0.1c-0.5,0.4-1,0.9-1.3,1.4c-0.1,0.8,0,1.7,0.2,2.5c0.4-0.2,0.9-0.5,1.3-0.7
		c1-0.5,3-1.7,3.7-1.2c0.3,0.2,0.5,0.6,0.5,1c0.1-1.5-0.1-2.9-0.7-4.3c0-0.3,0.1-0.2,0.3-0.1c0.1,0.1,0.3,0.1,0.4,0s0.1-0.3,0-0.4
		l0,0c-0.1-0.1-0.2-0.3,0.1-0.3c1.4,0.6,2.8,0.8,4.3,0.7c-0.4,0-0.8-0.2-1-0.5c-0.5-0.7,0.7-2.7,1.2-3.7c0.2-0.4,0.5-0.9,0.7-1.3
		C30.5,21.3,29.6,21.2,28.7,21.4L28.7,21.4z"/>
	<path class="st4" d="M64.8,42.6c-0.3-0.3-0.6-0.6-0.9-0.8c-0.6-0.4-2.1-0.8-3.1-1.5h1.4c0.7,0,1.5,0,2.2-0.1c0.2,0,0.3-0.1,0.4-0.2
		s-0.1-0.3-0.2-0.4c-0.1,0-0.1,0-0.2,0c-0.7-0.1-1.5-0.1-2.2-0.1h-1.4c1-0.6,2.5-1.1,3.1-1.5c0.4-0.2,0.7-0.5,0.9-0.8
		c0.1-0.1,0.1-0.2,0.2-0.4c0.1-0.6-0.3-0.6-0.4-0.7c-0.1-0.1,0-0.3-0.2-0.4c-0.2-0.1-0.4-0.1-0.5-0.2c-0.1-0.1-0.2-0.4-0.4-0.5
		c-0.2-0.1-0.5-0.1-0.7-0.2c-0.2-0.1-0.3-0.5-1.1-0.6c-0.2,0-0.4,0-0.6,0.1c-0.6,0.3-1.1,0.7-1.5,1.2c-0.1,0.1-0.3,0.4-0.4,0.5
		c0.1-0.6,0-1.3-0.1-1.9c-0.5-0.7-1.2-1.3-2-1.6c-0.1,0.5-0.3,1-0.4,1.4c-0.3,1-0.9,3.3-1.8,3.5c-0.4,0.1-0.8-0.1-1-0.4
		c0.9,1.1,2.1,2,3.5,2.5c0.2,0.2,0.1,0.2-0.1,0.3c-0.2,0-0.3,0.1-0.3,0.3c0,0,0,0,0,0c0,0,0,0.2,0.3,0.3s0.3,0.1,0.1,0.3
		c-1.3,0.6-2.5,1.4-3.5,2.5c0.3-0.3,0.6-0.4,1-0.4c0.8,0.1,1.4,2.4,1.7,3.5c0.1,0.5,0.3,1,0.4,1.4c0.8-0.4,1.5-0.9,2-1.6
		c0.2-0.6,0.2-1.3,0.1-1.9c0,0.1,0.3,0.4,0.4,0.5c0.4,0.5,0.9,0.9,1.5,1.2c0.2,0,0.4,0.1,0.6,0.1c0.4-0.1,0.8-0.3,1.1-0.6
		c0.2-0.1,0.5-0.1,0.7-0.3s0.2-0.4,0.4-0.5s0.4-0.1,0.5-0.2s0.1-0.3,0.2-0.4c0.1-0.1,0.5-0.2,0.4-0.7S64.9,42.7,64.8,42.6z
		 M41.6,56.2c-0.1-0.4,0.1-0.8,0.4-1c-1.1,0.9-2,2.1-2.5,3.5c-0.2,0.2-0.2,0.1-0.3-0.1c0-0.2-0.1-0.3-0.3-0.3c0,0,0,0,0,0
		c0,0-0.2,0-0.3,0.3s-0.1,0.3-0.3,0.1c-0.6-1.3-1.4-2.5-2.5-3.5c0.3,0.3,0.4,0.6,0.4,1c-0.1,0.9-2.4,1.4-3.5,1.7
		c-0.5,0.2-0.9,0.3-1.4,0.4c0.4,0.8,0.9,1.5,1.6,2c0.6,0.2,1.3,0.2,1.9,0.1c-0.1,0-0.4,0.3-0.5,0.4c-0.5,0.4-0.9,0.9-1.2,1.5
		c0,0.2-0.1,0.4-0.1,0.6c0.1,0.4,0.3,0.8,0.6,1.1c0.1,0.2,0.1,0.5,0.2,0.7c0.1,0.2,0.4,0.2,0.5,0.4c0.1,0.2,0.1,0.4,0.2,0.5
		s0.3,0.1,0.4,0.2c0.1,0.1,0.2,0.5,0.7,0.4c0.2,0,0.3-0.1,0.4-0.2c0.3-0.3,0.6-0.6,0.8-0.9c0.4-0.6,0.8-2.1,1.5-3.1v1.4
		c0,0.7,0,1.5,0.1,2.2c0,0.2,0.1,0.3,0.2,0.4s0.3-0.1,0.4-0.2c0-0.1,0-0.1,0-0.2c0.1-0.7,0.1-1.5,0.1-2.2V62c0.6,1,1.1,2.5,1.5,3.1
		c0.2,0.4,0.5,0.7,0.8,0.9c0.1,0.1,0.2,0.1,0.4,0.2c0.6,0.1,0.6-0.3,0.7-0.4c0.1-0.1,0.3,0,0.4-0.2c0.1-0.2,0.1-0.4,0.2-0.5
		s0.4-0.2,0.5-0.4c0.1-0.2,0.1-0.5,0.2-0.7c0.1-0.2,0.5-0.3,0.6-1.1c0-0.2,0-0.4-0.1-0.6c-0.3-0.6-0.7-1.1-1.2-1.5
		c-0.1-0.1-0.4-0.3-0.5-0.4c0.6,0.1,1.3,0,1.9-0.1c0.7-0.5,1.3-1.2,1.6-2c-0.5-0.1-1-0.3-1.4-0.4C44,57.7,41.7,57.1,41.6,56.2
		L41.6,56.2z M20.1,39.4c1.3-0.6,2.5-1.4,3.5-2.5c-0.3,0.3-0.6,0.4-1,0.4c-0.9-0.1-1.4-2.4-1.8-3.5c-0.1-0.5-0.3-1-0.4-1.4
		c-0.8,0.4-1.5,0.9-2,1.6c-0.2,0.6-0.2,1.3-0.1,1.9c0-0.1-0.3-0.4-0.4-0.5c-0.4-0.5-0.9-0.9-1.5-1.2c-0.2,0-0.4-0.1-0.6-0.1
		c-0.4,0.1-0.8,0.3-1.1,0.6c-0.2,0.1-0.5,0.1-0.7,0.2c-0.2,0.1-0.2,0.4-0.4,0.5c-0.2,0.1-0.4,0.1-0.5,0.2C13,35.7,13,35.9,12.9,36
		c-0.1,0.1-0.5,0.2-0.4,0.7c0,0.2,0.1,0.3,0.2,0.4c0.3,0.3,0.6,0.6,0.9,0.8c0.6,0.4,2.1,0.8,3.1,1.5h-1.4c-0.7,0-1.5,0-2.2,0.1
		c-0.2,0-0.3,0.1-0.4,0.3c0,0.2,0.2,0.3,0.4,0.3c0.7,0.1,1.5,0.1,2.2,0.1h1.4c-1,0.6-2.5,1.1-3.1,1.5c-0.4,0.2-0.7,0.5-0.9,0.8
		c-0.1,0.1-0.1,0.2-0.2,0.4c-0.1,0.6,0.3,0.6,0.4,0.7s0,0.3,0.2,0.4s0.4,0.1,0.5,0.2s0.2,0.4,0.4,0.5s0.5,0.1,0.7,0.2
		s0.3,0.5,1.1,0.6c0.2,0,0.4,0,0.6-0.1c0.6-0.3,1.1-0.7,1.5-1.2c0.1-0.1,0.3-0.4,0.4-0.5c-0.1,0.6,0,1.3,0.1,1.9
		c0.5,0.7,1.2,1.3,2,1.6c0.1-0.5,0.3-1,0.4-1.4c0.3-1,0.9-3.3,1.7-3.5c0.4-0.1,0.8,0.1,1,0.4c-0.9-1.1-2.1-2-3.5-2.5
		c-0.2-0.2-0.1-0.2,0.1-0.3c0.2,0,0.3-0.1,0.3-0.3c0,0,0,0,0,0C20.4,39.6,20.4,39.4,20.1,39.4C19.9,39.6,19.8,39.6,20.1,39.4
		L20.1,39.4z M44.9,19.7c-0.6-0.2-1.3-0.2-1.9-0.1c0.1,0,0.4-0.3,0.5-0.4c0.5-0.4,0.9-0.9,1.2-1.5c0-0.2,0.1-0.4,0.1-0.6
		c-0.1-0.4-0.3-0.8-0.6-1.1c-0.1-0.2-0.1-0.5-0.2-0.7s-0.4-0.2-0.5-0.4s-0.1-0.4-0.2-0.5s-0.3-0.1-0.4-0.2s-0.2-0.5-0.7-0.4
		c-0.1,0-0.2,0.1-0.4,0.2c-0.3,0.3-0.6,0.6-0.8,0.9c-0.4,0.6-0.8,2.1-1.5,3.1v-1.4c0-0.7,0-1.5-0.1-2.2c0-0.2-0.1-0.3-0.3-0.4
		c-0.2,0-0.3,0.2-0.3,0.4c-0.1,0.7-0.1,1.5-0.1,2.2V18c-0.6-1-1.1-2.5-1.5-3.1c-0.2-0.4-0.5-0.7-0.8-0.9c-0.1-0.1-0.2-0.1-0.4-0.2
		c-0.6-0.1-0.6,0.3-0.7,0.4s-0.3,0-0.4,0.2s-0.1,0.4-0.2,0.5s-0.4,0.2-0.5,0.4S34.1,15.8,34,16c-0.1,0.2-0.5,0.3-0.6,1.1
		c0,0.2,0,0.4,0.1,0.6c0.3,0.6,0.7,1.1,1.2,1.5c0.1,0.1,0.4,0.3,0.5,0.4c-0.6-0.1-1.3,0-1.9,0.1c-0.7,0.5-1.3,1.2-1.6,2
		c0.5,0.1,1,0.3,1.4,0.4c1,0.3,3.3,0.9,3.5,1.8c0.1,0.4-0.1,0.8-0.4,1c1.1-0.9,2-2.1,2.5-3.5c0.2-0.2,0.2-0.1,0.3,0.1
		c0,0.2,0.1,0.3,0.3,0.3c0,0,0,0,0,0c0,0,0.2,0,0.3-0.3s0.1-0.3,0.3-0.1c0.6,1.3,1.4,2.5,2.5,3.5c-0.3-0.3-0.4-0.6-0.4-1
		c0.1-0.9,2.4-1.4,3.5-1.8c0.5-0.2,0.9-0.3,1.4-0.4C46,20.7,45.4,19.9,44.9,19.7L44.9,19.7z"/>
	<path class="st5" d="M113.8,37.9c-0.5-1-1.1-1.8-2-2.5c-0.8-0.7-1.8-1.2-2.8-1.6c-1-0.4-2-0.7-3-0.8c1.8-0.3,3.5-1.1,4.8-2.4
		c1.3-1.2,2-3,1.9-4.8c0.1-1.6-0.5-3.2-1.5-4.4c-1-1.2-2.3-2.1-3.7-2.6c-1-0.4-2-0.6-3-0.7c-1-0.1-2.1-0.2-3.2-0.2h-15v0.7
		c1.8,0.1,3.6,0.4,3.9,4c0.1,1.4,0.2,6.3,0.1,11.2s0,9.9-0.2,11.5c-0.3,3.5-2.7,3.8-4.4,4v0.6H101c1.3,0,2.6,0,4-0.1
		c1.3-0.1,2.6-0.3,3.8-0.7c1.5-0.5,2.8-1.4,3.8-2.7c0.5-0.7,1-1.5,1.3-2.3c0.3-0.9,0.5-1.9,0.5-2.9
		C114.6,40.1,114.4,38.9,113.8,37.9L113.8,37.9z M95.6,25.4c0-2.1,0.1-4.3,0.3-6.4c0.4-0.1,0.7-0.2,1.1-0.2c0.6-0.1,1.1-0.1,1.7-0.1
		c1.7-0.1,3.4,0.2,5,0.9c1.1,0.5,2.1,1.3,2.7,2.4c0.7,1.2,1.1,2.5,1.1,3.9c0,1.8-0.7,3.6-2,4.9c-1.6,1.5-3.7,2.2-5.9,2.2h-4
		L95.6,25.4z M108.2,45.3c-1.3,1.9-3.4,3.1-5.7,3.4c-1,0.1-1.9,0.2-2.8,0.2c-0.7,0-1.5-0.1-2.2-0.3c-0.4-0.2-0.8-0.4-1.1-0.8
		c-0.3-0.5-0.5-1.1-0.6-1.7c-0.1-1.5-0.2-3-0.2-4.5v-7.7h4.6c6.6,0,8.3,4.5,8.6,5.3c0.3,0.7,0.4,1.5,0.4,2.3
		C109.2,42.8,108.9,44.2,108.2,45.3z"/>
	<path class="st5" d="M150.5,41.9h-0.8c-0.7,1.3-3.1,4.9-6.3,6.1c-0.8,0.3-1.7,0.6-2.6,0.7c-0.8,0.1-1.7,0.2-2.5,0.2
		c-1.2,0-2.4,0-3.6-0.2c-1-0.2-1.5-0.4-1.8-0.8c-0.5-0.6-0.7-2.3-0.7-5.5v-6.7c0-0.6,0-1.1,0.1-1.7h1.7c2.7,0,5.1,0.2,6.7,2.1
		c1,1.4,1.7,2.9,2,4.6h0.7v-14h-0.7c-1,5.4-3.7,6.3-9.9,6.3h-0.6v-0.4c0-0.3-0.1-9.4,0-10.9c0-0.9,0.1-1.9,0.2-2.8
		c0.3,0,0.7-0.1,1.3-0.1c0.6-0.1,1.3-0.1,1.9-0.1c3.4,0,5.1,0.4,6.1,0.9c2.3,1,2.9,1.7,5,5.4l0.6-0.3l-1.3-6.8h-23v0.7
		c1.2,0.1,3.9,0.2,4,3.9c0.2,4.5,0,6.4,0,11.2s0,9.9-0.2,11.4c-0.1,2.3-2,4.1-4.3,4v0.6h25.6L150.5,41.9L150.5,41.9z"/>
	<path class="st5" d="M231.3,20.6c1.3-0.9,2.8-1.4,4.4-1.3h3.9l-0.1,24.9c0,0.5,0,2.5-0.9,3.5c-1.1,1-2.5,1.5-4,1.5v0.6h14.6v-0.6
		c-1.4,0-2.7-0.5-3.7-1.5c-0.9-1-0.9-3.1-0.9-3.6V19.3h3.9c1.5-0.1,3,0.3,4.3,1.2c1.7,1.3,3.7,5.2,4,5.9l0.6-0.2l-1.6-8.8
		c-1.2,0.4-2.5,0.7-3.8,0.7c-2.3,0-6.1,0.1-10,0.1s-7.7-0.1-10-0.1c-1.3,0-2.6-0.2-3.8-0.7l-1.4,8.7l0.6,0.1
		C227.8,25.4,229.3,22.3,231.3,20.6L231.3,20.6z"/>
	<path class="st5" d="M175.3,48.8l-1,0.3c-0.2,0.1-0.5,0.1-0.7,0.1v0.7h13.1v-0.7c-3,0-4.3-2.5-5.2-4.7c-0.3-0.8-0.6-1.5-0.9-2.3
		l-2.1-5.6c-0.7-1.9-1.4-3.9-2.2-5.9s-1.5-4.1-2.3-6.3l-2.6-7h-0.6c-0.9,1.6-2.3,2.9-4,3.7l0.5,1c-0.7,1.6-8.4,19.7-9.1,21
		c-0.6,1.2-1.2,2.4-1.9,3.6c-0.8,1.4-2.2,2.4-3.8,2.5v0.7h9.6v-0.6c-1.2,0-2.4-0.4-3.3-1.1c-0.2-0.2-0.4-0.6-0.3-0.9
		c0.1-1.1,0.4-2.3,0.9-3.3l2.5-6.2h11.6c0.4,1.1,1.5,3.7,2.2,6.1c0.4,1.1,0.7,2.3,0.9,3.5c0,0.3-0.1,0.7-0.4,0.9
		C176,48.4,175.7,48.6,175.3,48.8L175.3,48.8z M162.4,36.5c0.7-1.7,5.3-12.8,5.5-13.2c0.2,0.6,4.7,12,5.2,13.2H162.4z"/>
	<path class="st5" d="M280.7,17.9l0.1,0.7c0.9,0,1.7,0.2,2.5,0.5c0.3,0.1,0.7,0.3,0.9,0.6c0.2,0.3,0.3,0.6,0.3,1
		c0,0.3,0,0.6-0.2,0.9c-0.4,1-0.8,1.9-1.4,2.8c-2.2,3.6-5.4,8.6-5.8,9.1c-0.5-0.7-4.2-6.6-7-11.6c-0.3-0.5-0.5-1.1-0.6-1.7
		c0-0.3,0.1-0.6,0.3-0.8c0.2-0.2,0.6-0.4,0.9-0.5l1.2-0.3c0.5-0.1,0.9-0.1,1.4-0.1v-0.7h-13.5v0.7c1.1,0.2,2.2,0.7,2.9,1.6
		c0.5,0.6,1,1.2,1.4,1.8c3,4.4,8.6,13.7,8.6,13.7v8.6c0,0.5,0,2.5-0.9,3.5c-1.1,1-2.5,1.5-4,1.5v0.6h14.6v-0.6
		c-1.4,0-2.7-0.5-3.7-1.5c-0.9-1-0.9-3.1-0.9-3.6v-9.6c0,0,7.8-11.9,8.2-12.6s1-1.2,1.4-1.7c0.5-0.5,1-0.8,1.6-1.1
		c0.7-0.3,1.4-0.5,2.2-0.6v-0.6L280.7,17.9z"/>
	<path class="st5" d="M216.7,45.1c0.5-0.9,0.9-1.9,1.2-2.9c0.2-0.9,0.4-1.8,0.4-2.7l0.1-2.1c0.1-2,0.3-10.7,0.3-11.5
		c0.1-3.2,0.4-5.1,1.5-6.1c0.9-0.7,2-1.1,3.1-1.2v-0.7h-11.1v0.7c1.1,0.1,2.2,0.5,3.2,1.1c0.7,0.5,1.2,1.1,1.5,1.9
		c0.1,0.4,0.2,0.8,0.2,1.2c0.1,0.5,0.1,1,0.1,1.5v11c0,1,0,2-0.1,3.1s-0.2,2-0.4,3c-0.2,1-0.5,1.9-1,2.8c-0.4,0.9-1,1.7-1.8,2.3
		c-0.8,0.8-1.8,1.3-2.9,1.6c-1.4,0.4-2.8,0.6-4.2,0.6c-1.3,0-2.7-0.2-3.9-0.7c-1.1-0.5-2.1-1.2-2.9-2c-0.8-0.9-1.4-2-1.8-3.2
		c-0.4-1.4-0.7-2.8-0.7-4.2V24c0-1.2,0-3.3,1-4.3c0.8-0.7,1.9-1.1,3-1.1v-0.7h-13.3v0.7c1,0,2.1,0.3,2.9,0.9
		c0.9,0.6,1.3,1.8,1.3,4.2v16.5c0.1,0.8,0.3,1.6,0.5,2.4c0.3,0.9,0.7,1.8,1.2,2.7c0.6,0.9,1.3,1.8,2.2,2.5c1.1,0.8,2.3,1.4,3.6,1.8
		c1.8,0.5,3.6,0.8,5.4,0.7c1.8,0.1,3.7-0.2,5.4-0.7c1.3-0.4,2.6-1,3.7-1.9C215.4,47.1,216.2,46.2,216.7,45.1z"/>
	<path class="st5" d="M360.4,18.5c1.1,0.1,2.2,0.5,3.2,1.1c0.7,0.5,1.2,1.1,1.5,1.9c0.1,0.4,0.2,0.8,0.2,1.2c0.1,0.5,0.1,1,0.1,1.5
		v11c0,1,0,2-0.1,3.1s-0.2,2-0.4,3c-0.2,1-0.5,1.9-1,2.8c-0.4,0.9-1,1.7-1.8,2.3c-0.8,0.7-1.8,1.3-2.9,1.6c-1.4,0.4-2.8,0.6-4.2,0.6
		c-1.3,0-2.7-0.2-3.9-0.7c-1.1-0.5-2.1-1.2-2.9-2c-0.8-0.9-1.4-2-1.8-3.2c-0.4-1.4-0.7-2.8-0.7-4.2V23.9c0-1.2,0-3.3,1-4.3
		c0.8-0.7,1.9-1.1,3-1.1v-0.7h-13.3v0.7c1,0,2.1,0.3,2.9,0.9c0.9,0.6,1.3,1.8,1.3,4.3v16.6c0.1,0.8,0.3,1.6,0.5,2.4
		c0.3,0.9,0.7,1.8,1.2,2.7c0.6,0.9,1.3,1.8,2.2,2.5c1.1,0.8,2.3,1.4,3.6,1.8c1.8,0.5,3.6,0.8,5.4,0.7c1.8,0.1,3.7-0.2,5.4-0.7
		c1.3-0.4,2.6-1.1,3.7-1.9c0.9-0.7,1.6-1.6,2.2-2.6c0.5-0.9,0.9-1.9,1.2-2.9c0.2-0.9,0.4-1.8,0.4-2.7l0.1-2.1l0.3-11.6
		c0.1-3.2,0.4-5.1,1.5-6.1c0.9-0.7,2-1.1,3.1-1.2v-0.7h-11.1L360.4,18.5L360.4,18.5z"/>
	<path class="st5" d="M404.2,20.6c0,0-0.6-0.4-0.8-0.5c-0.5-0.3-1.2-0.7-2-1.1c-1.1-0.4-2.2-0.8-3.3-1.1c-1.5-0.3-3.1-0.5-4.7-0.5
		c-1.8,0-3.6,0.2-5.3,0.6c-2.8,0.7-5.3,2.1-7.4,4.1c-0.9,0.9-1.7,1.9-2.3,2.9c-0.5,0.8-0.9,1.7-1.3,2.6c-0.3,0.8-0.6,1.6-0.8,2.4
		c-0.2,0.7-0.3,1.5-0.4,2.2c-0.1,0.6-0.1,1.2-0.1,1.8c0,2.3,0.4,4.5,1.2,6.6c0.8,2,2,3.8,3.6,5.2c1.7,1.4,3.6,2.6,5.7,3.3
		c2.4,0.8,4.9,1.2,7.4,1.2c1.5,0,3-0.1,4.4-0.4c1.3-0.2,2.5-0.6,3.7-1.2c1-0.5,2.5-1.5,2.5-1.5l1.8,2.2h0.7v-9.8h-0.7
		c-0.3,1.3-0.8,2.5-1.5,3.7c-0.7,1.2-1.6,2.2-2.6,3.1c-1.1,0.9-2.2,1.6-3.5,2.2c-1.3,0.5-2.8,0.8-4.2,0.8c-1.8,0-3.6-0.4-5.2-1.2
		c-1.6-0.7-2.9-1.8-4-3.2c-1.1-1.4-2-3.1-2.6-4.8c-0.6-1.9-0.9-3.9-0.9-5.9c0-2,0.3-3.9,0.8-5.8c0.5-1.8,1.4-3.5,2.5-5.1
		c1.1-1.5,2.4-2.7,4-3.6c1.6-0.9,3.5-1.4,5.4-1.4c1.4,0,2.8,0.3,4.1,0.8c1.3,0.5,2.5,1.2,3.5,2.1c1.1,0.9,2,2,2.7,3.2
		c0.7,1.3,1.3,2.6,1.7,4h0.7V18.4h-0.9L404.2,20.6z"/>
	<path class="st5" d="M324.2,32.6c-0.6-0.2-1.1-0.4-1.6-0.6c-0.5-0.2-1-0.3-1.5-0.5l-1.5-0.5c-0.5-0.2-1-0.4-1.6-0.6
		c-1.3-0.5-2.6-1.2-3.6-2.2c-1-1-1.5-2.3-1.4-3.7c0-0.9,0.2-1.8,0.5-2.6c0.3-0.8,0.8-1.4,1.4-2c0.6-0.5,1.3-0.9,2.1-1.2
		c0.8-0.2,1.7-0.4,2.6-0.4c1.1,0,2.1,0.2,3.1,0.7c0.9,0.5,1.7,1.1,2.5,1.8c0.7,0.7,1.4,1.6,1.9,2.5c0.5,0.9,1,1.9,1.4,2.9h0.7v-8.4
		h-0.6c-0.4,0.5-1,1.5-1.2,1.7c-1.4-0.8-2.8-1.4-4.3-1.9c-1.1-0.3-2.3-0.4-3.4-0.4c-1.4,0-2.8,0.2-4.1,0.6c-1.2,0.3-2.4,0.9-3.4,1.7
		c-1,0.8-1.8,1.8-2.4,2.9c-0.6,1.3-0.9,2.8-0.8,4.2c0,0.9,0.2,1.8,0.5,2.7c0.3,0.8,0.7,1.6,1.3,2.3c0.5,0.7,1.2,1.3,1.9,1.8
		c0.7,0.5,1.4,0.9,2.2,1.2l1.7,0.7c0.5,0.1,1,0.3,1.4,0.5l1.5,0.5c0.5,0.2,1.1,0.4,1.8,0.7c0.7,0.2,1.4,0.5,2,0.9
		c0.6,0.3,1.1,0.7,1.6,1.2c0.5,0.4,0.9,1,1.1,1.6c0.2,0.7,0.4,1.4,0.4,2.1c0.1,1.8-0.7,3.6-2,4.8c-1.5,1.2-3.3,1.8-5.2,1.7
		c-0.8,0-1.6-0.1-2.3-0.4c-0.7-0.2-1.4-0.5-2-0.8c-0.6-0.3-1.1-0.7-1.6-1.1c-0.5-0.5-1-1.1-1.5-1.7c-0.5-0.7-0.9-1.4-1.3-2.1
		c-0.4-0.8-0.7-1.6-1-2.4h-0.6v9h0.6c0,0,1.3-1.5,1.4-1.6c1,0.5,2,1,3,1.3c1.8,0.4,3.6,0.6,5.5,0.6c1.6,0,3.2-0.2,4.7-0.6
		c1.3-0.4,2.6-1,3.7-1.8c1-0.8,1.8-1.8,2.4-2.9c0.6-1.2,0.9-2.5,0.9-3.8c0-1.9-0.5-3.8-1.7-5.3C327.9,34.3,326.1,33.3,324.2,32.6
		L324.2,32.6z"/>
	<path class="st5" d="M532.9,32.6c-0.6-0.2-1.1-0.4-1.6-0.6c-0.5-0.2-1-0.3-1.5-0.5l-1.5-0.5c-0.5-0.2-1-0.4-1.6-0.6
		c-1.3-0.5-2.6-1.2-3.6-2.2c-1-1-1.5-2.3-1.4-3.7c0-0.9,0.2-1.8,0.5-2.6c0.3-0.8,0.8-1.4,1.4-2c0.6-0.5,1.3-0.9,2.1-1.2
		c0.8-0.2,1.7-0.4,2.6-0.4c1.1,0,2.1,0.2,3.1,0.7c0.9,0.5,1.8,1.1,2.5,1.8c0.7,0.7,1.4,1.6,1.9,2.5c0.5,0.9,1,1.9,1.4,2.9h0.7v-8.4
		h-0.6c-0.4,0.5-1,1.5-1.2,1.7c-1.3-0.8-2.8-1.4-4.3-1.9c-1.1-0.3-2.3-0.4-3.4-0.4c-1.4,0-2.8,0.2-4.1,0.6c-1.2,0.3-2.4,0.9-3.4,1.7
		c-1,0.8-1.8,1.8-2.4,2.9c-0.6,1.3-0.9,2.8-0.8,4.2c0,0.9,0.2,1.8,0.5,2.7c0.3,0.8,0.7,1.6,1.3,2.3c0.5,0.7,1.2,1.3,1.9,1.8
		c0.7,0.5,1.4,0.9,2.2,1.2l1.7,0.7c0.5,0.1,1,0.3,1.4,0.5l1.5,0.5c0.5,0.2,1.2,0.4,1.9,0.7c0.7,0.2,1.4,0.5,2,0.9
		c0.6,0.3,1.1,0.7,1.6,1.2c0.5,0.4,0.9,1,1.1,1.6c0.2,0.7,0.4,1.4,0.4,2.1c0.1,1.8-0.7,3.6-2,4.8c-1.5,1.2-3.3,1.8-5.2,1.7
		c-0.8,0-1.6-0.1-2.3-0.4c-0.7-0.2-1.4-0.5-2-0.8c-0.6-0.3-1.1-0.7-1.6-1.1c-0.5-0.5-1-1.1-1.5-1.7c-0.5-0.7-0.9-1.4-1.3-2.1
		c-0.4-0.8-0.7-1.6-1-2.4h-1v9h0.6c0,0,1.3-1.5,1.4-1.6c1,0.5,2,1,3,1.3c1.8,0.4,3.7,0.6,5.5,0.6c1.6,0,3.2-0.2,4.7-0.6
		c1.3-0.4,2.6-1,3.7-1.8c1-0.8,1.8-1.8,2.4-2.9c0.6-1.2,0.9-2.5,0.9-3.8c0-1.9-0.5-3.8-1.7-5.3C536.5,34.3,534.8,33.2,532.9,32.6
		L532.9,32.6z"/>
	<path class="st5" d="M503.4,32.6c-0.6-0.2-1.1-0.4-1.6-0.6c-0.5-0.2-1-0.3-1.5-0.5l-1.5-0.5c-0.5-0.2-1-0.4-1.6-0.6
		c-1.3-0.5-2.6-1.2-3.6-2.2c-1-1-1.5-2.3-1.4-3.7c0-0.9,0.2-1.8,0.5-2.6c0.3-0.8,0.8-1.4,1.4-2c0.6-0.5,1.3-0.9,2.1-1.2
		c0.8-0.2,1.7-0.4,2.6-0.4c1.1,0,2.1,0.2,3.1,0.7c0.9,0.5,1.7,1.1,2.5,1.8c0.7,0.7,1.4,1.6,1.9,2.5c0.5,0.9,1,1.9,1.4,2.9h0.7v-8.4
		h-0.6c-0.4,0.5-1,1.5-1.2,1.7c-1.4-0.8-2.8-1.5-4.3-1.9c-1.1-0.3-2.3-0.4-3.4-0.4c-1.4,0-2.8,0.2-4.1,0.6c-1.2,0.3-2.4,0.9-3.4,1.7
		c-1,0.8-1.8,1.8-2.4,2.9c-0.6,1.3-0.9,2.8-0.8,4.2c0,0.9,0.2,1.8,0.5,2.7c0.3,0.8,0.7,1.6,1.3,2.3c0.5,0.7,1.2,1.3,1.9,1.8
		c0.7,0.5,1.4,0.9,2.2,1.2l1.7,0.7c0.5,0.1,1,0.3,1.4,0.5l1.5,0.5c0.5,0.2,1.1,0.4,1.8,0.7c0.7,0.2,1.4,0.5,2,0.9
		c0.6,0.3,1.2,0.7,1.7,1.2c0.5,0.4,0.9,1,1.1,1.6c0.2,0.7,0.4,1.4,0.4,2.1c0.1,1.8-0.7,3.6-2,4.8c-1.5,1.2-3.3,1.8-5.2,1.7
		c-0.8,0-1.6-0.1-2.3-0.4c-0.7-0.2-1.4-0.5-2-0.8c-0.6-0.3-1.1-0.7-1.6-1.1c-0.5-0.5-1-1.1-1.5-1.7c-0.5-0.7-0.9-1.4-1.3-2.1
		c-0.4-0.8-0.7-1.6-1-2.4h-0.6v9h0.6c0,0,1.3-1.5,1.4-1.6c1,0.5,2,1,3,1.3c1.8,0.4,3.7,0.6,5.5,0.6c1.6,0,3.2-0.2,4.7-0.6
		c1.3-0.4,2.6-1,3.7-1.8c1-0.8,1.8-1.8,2.4-2.9c0.6-1.2,0.9-2.5,0.9-3.8c0.1-1.9-0.6-3.8-1.7-5.3C507.1,34.3,505.3,33.3,503.4,32.6
		L503.4,32.6z"/>
	<path class="st5" d="M442.1,20.6c0,0-0.6-0.4-0.8-0.5c-0.5-0.3-1.2-0.7-2-1.1c-1.1-0.4-2.2-0.8-3.3-1.1c-1.5-0.3-3.1-0.5-4.7-0.5
		c-1.8,0-3.6,0.2-5.3,0.6c-1.5,0.4-2.9,0.9-4.2,1.7c-2.3,1.3-4.2,3.1-5.6,5.3c-0.5,0.8-0.9,1.7-1.3,2.6c-0.3,0.8-0.6,1.6-0.8,2.4
		c-0.2,0.7-0.3,1.5-0.4,2.2c-0.1,0.6-0.1,1.2-0.1,1.8c0,2.3,0.4,4.5,1.2,6.6c0.8,2,2,3.8,3.6,5.2c1.7,1.4,3.6,2.6,5.7,3.3
		c2.4,0.8,4.9,1.2,7.4,1.2c1.5,0,3-0.1,4.4-0.4c1.3-0.2,2.5-0.6,3.7-1.2c1-0.5,2.5-1.5,2.5-1.5l1.8,2.2h0.7v-9.8H444
		c-0.3,1.3-0.8,2.5-1.5,3.7c-0.7,1.2-1.6,2.2-2.6,3.1c-1.1,0.9-2.2,1.6-3.5,2.2c-1.3,0.5-2.8,0.8-4.2,0.8c-1.8,0-3.6-0.4-5.2-1.2
		c-1.6-0.7-2.9-1.8-4-3.2c-1.1-1.4-2-3.1-2.6-4.8c-0.6-1.9-0.9-3.9-0.9-5.9c0-2,0.3-3.9,0.8-5.8c0.5-1.8,1.4-3.6,2.5-5.1
		c1.1-1.5,2.4-2.7,4-3.6c1.7-0.9,3.5-1.4,5.4-1.4c2.8,0,5.5,1.1,7.6,2.9c1.1,0.9,2,2,2.7,3.2c0.7,1.3,1.3,2.6,1.7,4h0.7V18.4h-0.6
		L442.1,20.6L442.1,20.6z"/>
	<path class="st5" d="M473,48c-0.8,0.3-1.7,0.6-2.6,0.7c-0.8,0.1-1.7,0.2-2.5,0.2c-1.2,0-2.4,0-3.6-0.2c-1-0.2-1.5-0.4-1.8-0.8
		c-0.5-0.6-0.7-2.3-0.7-5.5v-6.7c0-0.6,0-1.1,0.1-1.7h1.7c2.7,0,5.1,0.2,6.7,2.1c1,1.4,1.7,2.9,2,4.6h0.7v-14h-0.7
		c-1,5.4-3.7,6.4-9.9,6.4h-0.6v-0.4c0-0.3-0.1-9.4,0-10.9c0-0.9,0.1-1.9,0.2-2.8c0.3,0,0.7-0.1,1.3-0.1c0.6-0.1,1.3-0.1,1.9-0.1
		c3.4,0,5.1,0.4,6.1,0.9c2.3,1,3,1.7,5,5.4l0.6-0.3l-1.3-6.8h-23v0.7c1.2,0.1,3.9,0.2,4,3.9c0.2,4.5,0,6.4,0,11.3s0,9.9-0.2,11.4
		c-0.1,2.3-2,4.1-4.3,4v0.6h25.6l2.1-7.9h-0.7C478.6,43.1,476.2,46.8,473,48L473,48z"/>
	<g id="Beauty_Success_Flag_1_">
		<rect x="85.8" y="58" class="st6" width="151.2" height="4.6"/>
		<rect x="388.7" y="58" class="st7" width="151.2" height="4.6"/>
	</g>
</g>
</svg>
